<?xml version="1.0" encoding="UTF-8" standalone="no"?><svg xmlns="http://www.w3.org/2000/svg" xmlns:xlink="http://www.w3.org/1999/xlink" contentScriptType="application/ecmascript" contentStyleType="text/css" height="534px" preserveAspectRatio="none" style="width:1251px;height:534px;" version="1.1" viewBox="0 0 1251 534" width="1251px" zoomAndPan="magnify"><defs><filter height="300%" id="fr0k47jitxljt" width="300%" x="-1" y="-1"><feGaussianBlur result="blurOut" stdDeviation="2.0"/><feColorMatrix in="blurOut" result="blurOut2" type="matrix" values="0 0 0 0 0 0 0 0 0 0 0 0 0 0 0 0 0 0 .4 0"/><feOffset dx="4.0" dy="4.0" in="blurOut2" result="blurOut3"/><feBlend in="SourceGraphic" in2="blurOut3" mode="normal"/></filter></defs><g><!--class BuildClassDiagramTask--><rect fill="#FEFECE" filter="url(#fr0k47jitxljt)" height="112.7754" id="BuildClassDiagramTask" style="stroke: #A80036; stroke-width: 1.5;" width="212" x="562" y="195"/><ellipse cx="597.25" cy="211" fill="#ADD1B2" rx="11" ry="11" style="stroke: #A80036; stroke-width: 1.0;"/><path d="M599.7231,217.1431 Q599.1421,217.4419 598.5029,217.5913 Q597.8638,217.7407 597.1582,217.7407 Q594.6514,217.7407 593.3315,216.0889 Q592.0117,214.437 592.0117,211.3159 Q592.0117,208.1865 593.3315,206.5347 Q594.6514,204.8828 597.1582,204.8828 Q597.8638,204.8828 598.5112,205.0322 Q599.1587,205.1816 599.7231,205.4805 L599.7231,208.2031 Q599.0923,207.6221 598.4988,207.3523 Q597.9053,207.0825 597.2744,207.0825 Q595.9297,207.0825 595.2449,208.1492 Q594.5601,209.2158 594.5601,211.3159 Q594.5601,213.4077 595.2449,214.4744 Q595.9297,215.541 597.2744,215.541 Q597.9053,215.541 598.4988,215.2712 Q599.0923,215.0015 599.7231,214.4204 Z "/><text fill="#000000" font-family="sans-serif" font-size="12" lengthAdjust="spacingAndGlyphs" textLength="135" x="615.75" y="215.5352">BuildClassDiagramTask</text><line style="stroke: #A80036; stroke-width: 1.5;" x1="563" x2="773" y1="227" y2="227"/><text fill="#000000" font-family="sans-serif" font-size="11" lengthAdjust="spacingAndGlyphs" textLength="189" x="568" y="241.6348">extension : ClassDiagramExtension</text><text fill="#000000" font-family="sans-serif" font-size="11" lengthAdjust="spacingAndGlyphs" textLength="118" x="568" y="254.5898">metaClass : MetaClass</text><line style="stroke: #A80036; stroke-width: 1.5;" x1="563" x2="773" y1="260.9102" y2="260.9102"/><text fill="#000000" font-family="sans-serif" font-size="11" lengthAdjust="spacingAndGlyphs" textLength="50" x="568" y="275.5449">execute()</text><text fill="#000000" font-family="sans-serif" font-size="11" lengthAdjust="spacingAndGlyphs" textLength="147" x="568" y="288.5">getProperty(String) : Object</text><text fill="#000000" font-family="sans-serif" font-size="11" lengthAdjust="spacingAndGlyphs" textLength="200" x="568" y="301.4551">invokeMethod(String, Object) : Object</text><!--class ClassDiagram--><rect fill="#FEFECE" filter="url(#fr0k47jitxljt)" height="48" id="ClassDiagram" style="stroke: #A80036; stroke-width: 1.5;" width="111" x="809.5" y="227.5"/><ellipse cx="824.5" cy="243.5" fill="#ADD1B2" rx="11" ry="11" style="stroke: #A80036; stroke-width: 1.0;"/><path d="M826.9731,249.6431 Q826.3921,249.9419 825.7529,250.0913 Q825.1138,250.2407 824.4082,250.2407 Q821.9014,250.2407 820.5815,248.5889 Q819.2617,246.937 819.2617,243.8159 Q819.2617,240.6865 820.5815,239.0347 Q821.9014,237.3828 824.4082,237.3828 Q825.1138,237.3828 825.7612,237.5322 Q826.4087,237.6816 826.9731,237.9805 L826.9731,240.7031 Q826.3423,240.1221 825.7488,239.8523 Q825.1553,239.5825 824.5244,239.5825 Q823.1797,239.5825 822.4949,240.6492 Q821.8101,241.7158 821.8101,243.8159 Q821.8101,245.9077 822.4949,246.9744 Q823.1797,248.041 824.5244,248.041 Q825.1553,248.041 825.7488,247.7712 Q826.3423,247.5015 826.9731,246.9204 Z "/><text fill="#000000" font-family="sans-serif" font-size="12" lengthAdjust="spacingAndGlyphs" textLength="79" x="838.5" y="248.0352">ClassDiagram</text><line style="stroke: #A80036; stroke-width: 1.5;" x1="810.5" x2="919.5" y1="259.5" y2="259.5"/><line style="stroke: #A80036; stroke-width: 1.5;" x1="810.5" x2="919.5" y1="267.5" y2="267.5"/><!--class ClassDiagramExtension--><rect fill="#FEFECE" filter="url(#fr0k47jitxljt)" height="138.6855" id="ClassDiagramExtension" style="stroke: #A80036; stroke-width: 1.5;" width="212" x="562" y="385"/><ellipse cx="597.7" cy="401" fill="#ADD1B2" rx="11" ry="11" style="stroke: #A80036; stroke-width: 1.0;"/><path d="M600.1731,407.1431 Q599.5921,407.4419 598.9529,407.5913 Q598.3138,407.7407 597.6082,407.7407 Q595.1014,407.7407 593.7815,406.0889 Q592.4617,404.437 592.4617,401.3159 Q592.4617,398.1865 593.7815,396.5347 Q595.1014,394.8828 597.6082,394.8828 Q598.3138,394.8828 598.9612,395.0322 Q599.6087,395.1816 600.1731,395.4805 L600.1731,398.2031 Q599.5423,397.6221 598.9488,397.3523 Q598.3553,397.0825 597.7244,397.0825 Q596.3797,397.0825 595.6949,398.1492 Q595.0101,399.2158 595.0101,401.3159 Q595.0101,403.4077 595.6949,404.4744 Q596.3797,405.541 597.7244,405.541 Q598.3553,405.541 598.9488,405.2712 Q599.5423,405.0015 600.1731,404.4204 Z "/><text fill="#000000" font-family="sans-serif" font-size="12" lengthAdjust="spacingAndGlyphs" textLength="134" x="616.3" y="405.5352">ClassDiagramExtension</text><line style="stroke: #A80036; stroke-width: 1.5;" x1="563" x2="773" y1="417" y2="417"/><text fill="#000000" font-family="sans-serif" font-size="11" lengthAdjust="spacingAndGlyphs" textLength="115" x="568" y="431.6348">packageName : String</text><text fill="#000000" font-family="sans-serif" font-size="11" lengthAdjust="spacingAndGlyphs" textLength="81" x="568" y="444.5898">outputFile : File</text><text fill="#000000" font-family="sans-serif" font-size="11" lengthAdjust="spacingAndGlyphs" textLength="161" x="568" y="457.5449">ignoredClasses : List&lt;String&gt;</text><text fill="#000000" font-family="sans-serif" font-size="11" lengthAdjust="spacingAndGlyphs" textLength="118" x="568" y="470.5">metaClass : MetaClass</text><line style="stroke: #A80036; stroke-width: 1.5;" x1="563" x2="773" y1="476.8203" y2="476.8203"/><text fill="#000000" font-family="sans-serif" font-size="11" lengthAdjust="spacingAndGlyphs" textLength="147" x="568" y="491.4551">getProperty(String) : Object</text><text fill="#000000" font-family="sans-serif" font-size="11" lengthAdjust="spacingAndGlyphs" textLength="200" x="568" y="504.4102">invokeMethod(String, Object) : Object</text><text fill="#000000" font-family="sans-serif" font-size="11" lengthAdjust="spacingAndGlyphs" textLength="143" x="568" y="517.3652">setProperty(String, Object)</text><!--class Classes--><rect fill="#FEFECE" filter="url(#fr0k47jitxljt)" height="60.9551" id="Classes" style="stroke: #A80036; stroke-width: 1.5;" width="134" x="221" y="40.5"/><ellipse cx="262.55" cy="56.5" fill="#B4A7E5" rx="11" ry="11" style="stroke: #A80036; stroke-width: 1.0;"/><path d="M258.9777,52.7651 L258.9777,50.6069 L266.3571,50.6069 L266.3571,52.7651 L263.8918,52.7651 L263.8918,60.8418 L266.3571,60.8418 L266.3571,63 L258.9777,63 L258.9777,60.8418 L261.4431,60.8418 L261.4431,52.7651 Z "/><text fill="#000000" font-family="sans-serif" font-size="12" font-style="italic" lengthAdjust="spacingAndGlyphs" textLength="43" x="282.45" y="61.0352">Classes</text><line style="stroke: #A80036; stroke-width: 1.5;" x1="222" x2="354" y1="72.5" y2="72.5"/><line style="stroke: #A80036; stroke-width: 1.5;" x1="222" x2="354" y1="80.5" y2="80.5"/><text fill="#000000" font-family="sans-serif" font-size="11" lengthAdjust="spacingAndGlyphs" textLength="122" x="227" y="95.1348">list() : List&lt;Class&lt;?&gt;&gt;</text><!--class ClsFiltered--><rect fill="#FEFECE" filter="url(#fr0k47jitxljt)" height="73.9102" id="ClsFiltered" style="stroke: #A80036; stroke-width: 1.5;" width="134" x="447" y="34"/><ellipse cx="480.9" cy="50" fill="#ADD1B2" rx="11" ry="11" style="stroke: #A80036; stroke-width: 1.0;"/><path d="M483.3731,56.1431 Q482.7921,56.4419 482.1529,56.5913 Q481.5138,56.7407 480.8082,56.7407 Q478.3014,56.7407 476.9815,55.0889 Q475.6617,53.437 475.6617,50.3159 Q475.6617,47.1865 476.9815,45.5347 Q478.3014,43.8828 480.8082,43.8828 Q481.5138,43.8828 482.1612,44.0322 Q482.8087,44.1816 483.3731,44.4805 L483.3731,47.2031 Q482.7423,46.6221 482.1488,46.3523 Q481.5553,46.0825 480.9244,46.0825 Q479.5797,46.0825 478.8949,47.1492 Q478.2101,48.2158 478.2101,50.3159 Q478.2101,52.4077 478.8949,53.4744 Q479.5797,54.541 480.9244,54.541 Q481.5553,54.541 482.1488,54.2712 Q482.7423,54.0015 483.3731,53.4204 Z "/><text fill="#000000" font-family="sans-serif" font-size="12" lengthAdjust="spacingAndGlyphs" textLength="60" x="499.1" y="54.5352">ClsFiltered</text><line style="stroke: #A80036; stroke-width: 1.5;" x1="448" x2="580" y1="66" y2="66"/><text fill="#000000" font-family="sans-serif" font-size="11" lengthAdjust="spacingAndGlyphs" textLength="92" x="453" y="80.6348">ignored : Classes</text><line style="stroke: #A80036; stroke-width: 1.5;" x1="448" x2="580" y1="86.9551" y2="86.9551"/><text fill="#000000" font-family="sans-serif" font-size="11" lengthAdjust="spacingAndGlyphs" textLength="122" x="453" y="101.5898">list() : List&lt;Class&lt;?&gt;&gt;</text><!--class ClsInPackage--><rect fill="#FEFECE" filter="url(#fr0k47jitxljt)" height="99.8203" id="ClsInPackage" style="stroke: #A80036; stroke-width: 1.5;" width="180" x="6" y="201.5"/><ellipse cx="54.25" cy="217.5" fill="#ADD1B2" rx="11" ry="11" style="stroke: #A80036; stroke-width: 1.0;"/><path d="M56.7231,223.6431 Q56.1421,223.9419 55.5029,224.0913 Q54.8638,224.2407 54.1582,224.2407 Q51.6514,224.2407 50.3315,222.5889 Q49.0117,220.937 49.0117,217.8159 Q49.0117,214.6865 50.3315,213.0347 Q51.6514,211.3828 54.1582,211.3828 Q54.8638,211.3828 55.5112,211.5322 Q56.1587,211.6816 56.7231,211.9805 L56.7231,214.7031 Q56.0923,214.1221 55.4988,213.8523 Q54.9053,213.5825 54.2744,213.5825 Q52.9297,213.5825 52.2449,214.6492 Q51.5601,215.7158 51.5601,217.8159 Q51.5601,219.9077 52.2449,220.9744 Q52.9297,222.041 54.2744,222.041 Q54.9053,222.041 55.4988,221.7712 Q56.0923,221.5015 56.7231,220.9204 Z "/><text fill="#000000" font-family="sans-serif" font-size="12" lengthAdjust="spacingAndGlyphs" textLength="75" x="74.75" y="222.0352">ClsInPackage</text><line style="stroke: #A80036; stroke-width: 1.5;" x1="7" x2="185" y1="233.5" y2="233.5"/><text fill="#000000" font-family="sans-serif" font-size="11" lengthAdjust="spacingAndGlyphs" textLength="115" x="12" y="248.1348">packageName : String</text><text fill="#000000" font-family="sans-serif" font-size="11" lengthAdjust="spacingAndGlyphs" textLength="168" x="12" y="261.0898">packageUrls : Collection&lt;URL&gt;</text><text fill="#000000" font-family="sans-serif" font-size="11" lengthAdjust="spacingAndGlyphs" textLength="125" x="12" y="274.0449">reflections : Reflections</text><line style="stroke: #A80036; stroke-width: 1.5;" x1="7" x2="185" y1="280.3652" y2="280.3652"/><text fill="#000000" font-family="sans-serif" font-size="11" lengthAdjust="spacingAndGlyphs" textLength="122" x="12" y="295">list() : List&lt;Class&lt;?&gt;&gt;</text><!--class ClsWithLog--><rect fill="#FEFECE" filter="url(#fr0k47jitxljt)" height="73.9102" id="ClsWithLog" style="stroke: #A80036; stroke-width: 1.5;" width="134" x="221" y="214.5"/><ellipse cx="254.45" cy="230.5" fill="#ADD1B2" rx="11" ry="11" style="stroke: #A80036; stroke-width: 1.0;"/><path d="M256.9231,236.6431 Q256.3421,236.9419 255.7029,237.0913 Q255.0638,237.2407 254.3582,237.2407 Q251.8514,237.2407 250.5315,235.5889 Q249.2117,233.937 249.2117,230.8159 Q249.2117,227.6865 250.5315,226.0347 Q251.8514,224.3828 254.3582,224.3828 Q255.0638,224.3828 255.7112,224.5322 Q256.3587,224.6816 256.9231,224.9805 L256.9231,227.7031 Q256.2923,227.1221 255.6988,226.8523 Q255.1053,226.5825 254.4744,226.5825 Q253.1297,226.5825 252.4449,227.6492 Q251.7601,228.7158 251.7601,230.8159 Q251.7601,232.9077 252.4449,233.9744 Q253.1297,235.041 254.4744,235.041 Q255.1053,235.041 255.6988,234.7712 Q256.2923,234.5015 256.9231,233.9204 Z "/><text fill="#000000" font-family="sans-serif" font-size="12" lengthAdjust="spacingAndGlyphs" textLength="61" x="272.55" y="235.0352">ClsWithLog</text><line style="stroke: #A80036; stroke-width: 1.5;" x1="222" x2="354" y1="246.5" y2="246.5"/><text fill="#000000" font-family="sans-serif" font-size="11" lengthAdjust="spacingAndGlyphs" textLength="82" x="227" y="261.1348">logger : Logger</text><line style="stroke: #A80036; stroke-width: 1.5;" x1="222" x2="354" y1="267.4551" y2="267.4551"/><text fill="#000000" font-family="sans-serif" font-size="11" lengthAdjust="spacingAndGlyphs" textLength="122" x="227" y="282.0898">list() : List&lt;Class&lt;?&gt;&gt;</text><!--class ClsWithNames--><rect fill="#FEFECE" filter="url(#fr0k47jitxljt)" height="73.9102" id="ClsWithNames" style="stroke: #A80036; stroke-width: 1.5;" width="134" x="390" y="214.5"/><ellipse cx="414.45" cy="230.5" fill="#ADD1B2" rx="11" ry="11" style="stroke: #A80036; stroke-width: 1.0;"/><path d="M416.9231,236.6431 Q416.3421,236.9419 415.7029,237.0913 Q415.0638,237.2407 414.3582,237.2407 Q411.8514,237.2407 410.5315,235.5889 Q409.2117,233.937 409.2117,230.8159 Q409.2117,227.6865 410.5315,226.0347 Q411.8514,224.3828 414.3582,224.3828 Q415.0638,224.3828 415.7112,224.5322 Q416.3587,224.6816 416.9231,224.9805 L416.9231,227.7031 Q416.2923,227.1221 415.6988,226.8523 Q415.1053,226.5825 414.4744,226.5825 Q413.1297,226.5825 412.4449,227.6492 Q411.7601,228.7158 411.7601,230.8159 Q411.7601,232.9077 412.4449,233.9744 Q413.1297,235.041 414.4744,235.041 Q415.1053,235.041 415.6988,234.7712 Q416.2923,234.5015 416.9231,233.9204 Z "/><text fill="#000000" font-family="sans-serif" font-size="12" lengthAdjust="spacingAndGlyphs" textLength="81" x="430.55" y="235.0352">ClsWithNames</text><line style="stroke: #A80036; stroke-width: 1.5;" x1="391" x2="523" y1="246.5" y2="246.5"/><text fill="#000000" font-family="sans-serif" font-size="11" lengthAdjust="spacingAndGlyphs" textLength="113" x="396" y="261.1348">names : List&lt;String&gt;</text><line style="stroke: #A80036; stroke-width: 1.5;" x1="391" x2="523" y1="267.4551" y2="267.4551"/><text fill="#000000" font-family="sans-serif" font-size="11" lengthAdjust="spacingAndGlyphs" textLength="122" x="396" y="282.0898">list() : List&lt;Class&lt;?&gt;&gt;</text><!--class CustomTask--><rect fill="#FEFECE" filter="url(#fr0k47jitxljt)" height="60.9551" id="CustomTask" style="stroke: #A80036; stroke-width: 1.5;" width="103" x="616.5" y="40.5"/><ellipse cx="631.5" cy="56.5" fill="#B4A7E5" rx="11" ry="11" style="stroke: #A80036; stroke-width: 1.0;"/><path d="M627.9277,52.7651 L627.9277,50.6069 L635.3071,50.6069 L635.3071,52.7651 L632.8418,52.7651 L632.8418,60.8418 L635.3071,60.8418 L635.3071,63 L627.9277,63 L627.9277,60.8418 L630.3931,60.8418 L630.3931,52.7651 Z "/><text fill="#000000" font-family="sans-serif" font-size="12" font-style="italic" lengthAdjust="spacingAndGlyphs" textLength="71" x="645.5" y="61.0352">CustomTask</text><line style="stroke: #A80036; stroke-width: 1.5;" x1="617.5" x2="718.5" y1="72.5" y2="72.5"/><line style="stroke: #A80036; stroke-width: 1.5;" x1="617.5" x2="718.5" y1="80.5" y2="80.5"/><text fill="#000000" font-family="sans-serif" font-size="11" lengthAdjust="spacingAndGlyphs" textLength="50" x="622.5" y="95.1348">execute()</text><!--class Diagram--><rect fill="#FEFECE" filter="url(#fr0k47jitxljt)" height="73.9102" id="Diagram" style="stroke: #A80036; stroke-width: 1.5;" width="102" x="891" y="34"/><ellipse cx="915.45" cy="50" fill="#B4A7E5" rx="11" ry="11" style="stroke: #A80036; stroke-width: 1.0;"/><path d="M911.8777,46.2651 L911.8777,44.1069 L919.2571,44.1069 L919.2571,46.2651 L916.7918,46.2651 L916.7918,54.3418 L919.2571,54.3418 L919.2571,56.5 L911.8777,56.5 L911.8777,54.3418 L914.3431,54.3418 L914.3431,46.2651 Z "/><text fill="#000000" font-family="sans-serif" font-size="12" font-style="italic" lengthAdjust="spacingAndGlyphs" textLength="49" x="931.55" y="54.5352">Diagram</text><line style="stroke: #A80036; stroke-width: 1.5;" x1="892" x2="992" y1="66" y2="66"/><line style="stroke: #A80036; stroke-width: 1.5;" x1="892" x2="992" y1="74" y2="74"/><text fill="#000000" font-family="sans-serif" font-size="11" lengthAdjust="spacingAndGlyphs" textLength="90" x="897" y="88.6348">content() : String</text><text fill="#000000" font-family="sans-serif" font-size="11" lengthAdjust="spacingAndGlyphs" textLength="52" x="897" y="101.5898">print(File)</text><!--class DiagramWithLog--><rect fill="#FEFECE" filter="url(#fr0k47jitxljt)" height="73.9102" id="DiagramWithLog" style="stroke: #A80036; stroke-width: 1.5;" width="125" x="955.5" y="214.5"/><ellipse cx="970.5" cy="230.5" fill="#ADD1B2" rx="11" ry="11" style="stroke: #A80036; stroke-width: 1.0;"/><path d="M972.9731,236.6431 Q972.3921,236.9419 971.7529,237.0913 Q971.1138,237.2407 970.4082,237.2407 Q967.9014,237.2407 966.5815,235.5889 Q965.2617,233.937 965.2617,230.8159 Q965.2617,227.6865 966.5815,226.0347 Q967.9014,224.3828 970.4082,224.3828 Q971.1138,224.3828 971.7612,224.5322 Q972.4087,224.6816 972.9731,224.9805 L972.9731,227.7031 Q972.3423,227.1221 971.7488,226.8523 Q971.1553,226.5825 970.5244,226.5825 Q969.1797,226.5825 968.4949,227.6492 Q967.8101,228.7158 967.8101,230.8159 Q967.8101,232.9077 968.4949,233.9744 Q969.1797,235.041 970.5244,235.041 Q971.1553,235.041 971.7488,234.7712 Q972.3423,234.5015 972.9731,233.9204 Z "/><text fill="#000000" font-family="sans-serif" font-size="12" lengthAdjust="spacingAndGlyphs" textLength="93" x="984.5" y="235.0352">DiagramWithLog</text><line style="stroke: #A80036; stroke-width: 1.5;" x1="956.5" x2="1079.5" y1="246.5" y2="246.5"/><text fill="#000000" font-family="sans-serif" font-size="11" lengthAdjust="spacingAndGlyphs" textLength="82" x="961.5" y="261.1348">logger : Logger</text><line style="stroke: #A80036; stroke-width: 1.5;" x1="956.5" x2="1079.5" y1="267.4551" y2="267.4551"/><text fill="#000000" font-family="sans-serif" font-size="11" lengthAdjust="spacingAndGlyphs" textLength="52" x="961.5" y="282.0898">print(File)</text><!--class PlantUmlPlugin--><rect fill="#FEFECE" filter="url(#fr0k47jitxljt)" height="125.7305" id="PlantUmlPlugin" style="stroke: #A80036; stroke-width: 1.5;" width="212" x="1028" y="8"/><ellipse cx="1087.75" cy="24" fill="#ADD1B2" rx="11" ry="11" style="stroke: #A80036; stroke-width: 1.0;"/><path d="M1090.2231,30.1431 Q1089.6421,30.4419 1089.0029,30.5913 Q1088.3638,30.7407 1087.6582,30.7407 Q1085.1514,30.7407 1083.8315,29.0889 Q1082.5117,27.437 1082.5117,24.3159 Q1082.5117,21.1865 1083.8315,19.5347 Q1085.1514,17.8828 1087.6582,17.8828 Q1088.3638,17.8828 1089.0112,18.0322 Q1089.6587,18.1816 1090.2231,18.4805 L1090.2231,21.2031 Q1089.5923,20.6221 1088.9988,20.3523 Q1088.4053,20.0825 1087.7744,20.0825 Q1086.4297,20.0825 1085.7449,21.1492 Q1085.0601,22.2158 1085.0601,24.3159 Q1085.0601,26.4077 1085.7449,27.4744 Q1086.4297,28.541 1087.7744,28.541 Q1088.4053,28.541 1088.9988,28.2712 Q1089.5923,28.0015 1090.2231,27.4204 Z "/><text fill="#000000" font-family="sans-serif" font-size="12" lengthAdjust="spacingAndGlyphs" textLength="84" x="1108.25" y="28.5352">PlantUmlPlugin</text><line style="stroke: #A80036; stroke-width: 1.5;" x1="1029" x2="1239" y1="40" y2="40"/><text fill="#000000" font-family="sans-serif" font-size="11" lengthAdjust="spacingAndGlyphs" textLength="118" x="1034" y="54.6348">metaClass : MetaClass</text><line style="stroke: #A80036; stroke-width: 1.5;" x1="1029" x2="1239" y1="60.9551" y2="60.9551"/><text fill="#000000" font-family="sans-serif" font-size="11" lengthAdjust="spacingAndGlyphs" textLength="74" x="1034" y="75.5898">apply(Project)</text><text fill="#000000" font-family="sans-serif" font-size="11" lengthAdjust="spacingAndGlyphs" textLength="72" x="1034" y="88.5449">apply(Object)</text><text fill="#000000" font-family="sans-serif" font-size="11" lengthAdjust="spacingAndGlyphs" textLength="147" x="1034" y="101.5">getProperty(String) : Object</text><text fill="#000000" font-family="sans-serif" font-size="11" lengthAdjust="spacingAndGlyphs" textLength="200" x="1034" y="114.4551">invokeMethod(String, Object) : Object</text><text fill="#000000" font-family="sans-serif" font-size="11" lengthAdjust="spacingAndGlyphs" textLength="143" x="1034" y="127.4102">setProperty(String, Object)</text><!--link BuildClassDiagramTask to ClassDiagramExtension--><path d="M668,308.22 C668,330.35 668,356.12 668,379.75 " fill="none" id="BuildClassDiagramTask-ClassDiagramExtension" style="stroke: #A80036; stroke-width: 1.0;"/><polygon fill="#A80036" points="668,384.76,672,375.76,668,379.76,664,375.76,668,384.76" style="stroke: #A80036; stroke-width: 1.0;"/><text fill="#000000" font-family="sans-serif" font-size="13" lengthAdjust="spacingAndGlyphs" textLength="62" x="669" y="351.5684">extension</text><!--link Classes to ClsFiltered--><path d="M360.32,71 C386.28,71 415.55,71 441.52,71 " fill="none" id="Classes-ClsFiltered" style="stroke: #A80036; stroke-width: 1.0;"/><polygon fill="#A80036" points="446.67,71,437.67,67,441.67,71,437.67,75,446.67,71" style="stroke: #A80036; stroke-width: 1.0;"/><polygon fill="#A80036" points="355.2,71,364.2,75,360.2,71,364.2,67,355.2,71" style="stroke: #A80036; stroke-width: 1.0;"/><text fill="#000000" font-family="sans-serif" font-size="13" lengthAdjust="spacingAndGlyphs" textLength="55" x="373.5" y="64.5684">/ignored</text><!--link Classes to ClsInPackage--><path d="M240.85,115.83 C213.02,141.71 177.72,174.53 148.93,201.29 " fill="none" id="Classes-ClsInPackage" style="stroke: #A80036; stroke-width: 1.0;"/><polygon fill="none" points="236.45,110.37,255.86,101.88,245.98,120.62,236.45,110.37" style="stroke: #A80036; stroke-width: 1.0;"/><!--link Classes to ClsWithLog--><path d="M288,122.2 C288,151.52 288,187.85 288,214.36 " fill="none" id="Classes-ClsWithLog" style="stroke: #A80036; stroke-width: 1.0;"/><polygon fill="none" points="281,121.88,288,101.88,295,121.88,281,121.88" style="stroke: #A80036; stroke-width: 1.0;"/><!--link Classes to ClsWithNames--><path d="M330.33,116.71 C358.89,146.88 396.09,186.17 422.78,214.36 " fill="none" id="Classes-ClsWithNames" style="stroke: #A80036; stroke-width: 1.0;"/><polygon fill="none" points="324.95,121.21,316.29,101.88,335.12,111.59,324.95,121.21" style="stroke: #A80036; stroke-width: 1.0;"/><!--link CustomTask to BuildClassDiagramTask--><path d="M668,122.06 C668,144.72 668,171.59 668,194.88 " fill="none" id="CustomTask-BuildClassDiagramTask" style="stroke: #A80036; stroke-width: 1.0;"/><polygon fill="none" points="661,121.88,668,101.88,675,121.88,661,121.88" style="stroke: #A80036; stroke-width: 1.0;"/><!--link Diagram to ClassDiagram--><path d="M918.31,126.93 C903.74,160.69 885.84,202.18 874.94,227.47 " fill="none" id="Diagram-ClassDiagram" style="stroke: #A80036; stroke-width: 1.0;"/><polygon fill="none" points="912.07,123.71,926.42,108.12,924.92,129.26,912.07,123.71" style="stroke: #A80036; stroke-width: 1.0;"/><!--link Diagram to DiagramWithLog--><path d="M965.32,126.78 C977.45,155.26 991.94,189.28 1002.64,214.43 " fill="none" id="Diagram-DiagramWithLog" style="stroke: #A80036; stroke-width: 1.0;"/><polygon fill="none" points="958.77,129.27,957.38,108.12,971.66,123.78,958.77,129.27" style="stroke: #A80036; stroke-width: 1.0;"/><!--
@startuml

class "BuildClassDiagramTask" {
  extension : ClassDiagramExtension
  metaClass : MetaClass
  execute()
  getProperty(String) : Object
  invokeMethod(String, Object) : Object
}

class "ClassDiagram"

class "ClassDiagramExtension" {
  packageName : String
  outputFile : File
  ignoredClasses : List<String>
  metaClass : MetaClass
  getProperty(String) : Object
  invokeMethod(String, Object) : Object
  setProperty(String, Object)
}

interface "Classes" {
  list() : List<Class<?>>
}

class "ClsFiltered" {
  ignored : Classes
  list() : List<Class<?>>
}

class "ClsInPackage" {
  packageName : String
  packageUrls : Collection<URL>
  reflections : Reflections
  list() : List<Class<?>>
}

class "ClsWithLog" {
  logger : Logger
  list() : List<Class<?>>
}

class "ClsWithNames" {
  names : List<String>
  list() : List<Class<?>>
}

interface "CustomTask" {
  execute()
}

interface "Diagram" {
  content() : String
  print(File)
}

class "DiagramWithLog" {
  logger : Logger
  print(File)
}

class "PlantUmlPlugin" {
  metaClass : MetaClass
  apply(Project)
  apply(Object)
  getProperty(String) : Object
  invokeMethod(String, Object) : Object
  setProperty(String, Object)
}

"BuildClassDiagramTask" - -> "ClassDiagramExtension" : extension
"Classes" <-> "ClsFiltered" : /ignored
"Classes" <|- - "ClsInPackage"
"Classes" <|- - "ClsWithLog"
"Classes" <|- - "ClsWithNames"
"CustomTask" <|- - "BuildClassDiagramTask"
"Diagram" <|- - "ClassDiagram"
"Diagram" <|- - "DiagramWithLog"

@enduml

PlantUML version 1.2018.12(Sun Oct 21 12:15:15 CEST 2018)
(GPL source distribution)
Java Runtime: OpenJDK Runtime Environment
JVM: Eclipse OpenJ9 VM
Java Version: 11.0.7+10
Operating System: Mac OS X
OS Version: 10.15.4
Default Encoding: UTF-8
Language: fr
Country: FR
--></g></svg>