<?xml version="1.0" encoding="UTF-8" standalone="no"?><svg xmlns="http://www.w3.org/2000/svg" xmlns:xlink="http://www.w3.org/1999/xlink" contentScriptType="application/ecmascript" contentStyleType="text/css" height="665px" preserveAspectRatio="none" style="width:2877px;height:665px;" version="1.1" viewBox="0 0 2877 665" width="2877px" zoomAndPan="magnify"><defs><filter height="300%" id="f1xfy926cn8le8" width="300%" x="-1" y="-1"><feGaussianBlur result="blurOut" stdDeviation="2.0"/><feColorMatrix in="blurOut" result="blurOut2" type="matrix" values="0 0 0 0 0 0 0 0 0 0 0 0 0 0 0 0 0 0 .4 0"/><feOffset dx="4.0" dy="4.0" in="blurOut2" result="blurOut3"/><feBlend in="SourceGraphic" in2="blurOut3" mode="normal"/></filter></defs><g><!--class BuildClassDiagramTask--><rect fill="#FEFECE" filter="url(#f1xfy926cn8le8)" height="112.7754" id="BuildClassDiagramTask" style="stroke: #A80036; stroke-width: 1.5;" width="212" x="2654.5" y="319.5"/><ellipse cx="2689.75" cy="335.5" fill="#ADD1B2" rx="11" ry="11" style="stroke: #A80036; stroke-width: 1.0;"/><path d="M2692.2231,341.6431 Q2691.6421,341.9419 2691.0029,342.0913 Q2690.3638,342.2407 2689.6582,342.2407 Q2687.1514,342.2407 2685.8315,340.5889 Q2684.5117,338.937 2684.5117,335.8159 Q2684.5117,332.6865 2685.8315,331.0347 Q2687.1514,329.3828 2689.6582,329.3828 Q2690.3638,329.3828 2691.0112,329.5322 Q2691.6587,329.6816 2692.2231,329.9805 L2692.2231,332.7031 Q2691.5923,332.1221 2690.9988,331.8523 Q2690.4053,331.5825 2689.7744,331.5825 Q2688.4297,331.5825 2687.7449,332.6492 Q2687.0601,333.7158 2687.0601,335.8159 Q2687.0601,337.9077 2687.7449,338.9744 Q2688.4297,340.041 2689.7744,340.041 Q2690.4053,340.041 2690.9988,339.7712 Q2691.5923,339.5015 2692.2231,338.9204 Z "/><text fill="#000000" font-family="sans-serif" font-size="12" lengthAdjust="spacingAndGlyphs" textLength="135" x="2708.25" y="340.0352">BuildClassDiagramTask</text><line style="stroke: #A80036; stroke-width: 1.5;" x1="2655.5" x2="2865.5" y1="351.5" y2="351.5"/><text fill="#000000" font-family="sans-serif" font-size="11" lengthAdjust="spacingAndGlyphs" textLength="189" x="2660.5" y="366.1348">extension : ClassDiagramExtension</text><text fill="#000000" font-family="sans-serif" font-size="11" lengthAdjust="spacingAndGlyphs" textLength="118" x="2660.5" y="379.0898">metaClass : MetaClass</text><line style="stroke: #A80036; stroke-width: 1.5;" x1="2655.5" x2="2865.5" y1="385.4102" y2="385.4102"/><text fill="#000000" font-family="sans-serif" font-size="11" lengthAdjust="spacingAndGlyphs" textLength="50" x="2660.5" y="400.0449">execute()</text><text fill="#000000" font-family="sans-serif" font-size="11" lengthAdjust="spacingAndGlyphs" textLength="147" x="2660.5" y="413">getProperty(String) : Object</text><text fill="#000000" font-family="sans-serif" font-size="11" lengthAdjust="spacingAndGlyphs" textLength="200" x="2660.5" y="425.9551">invokeMethod(String, Object) : Object</text><!--class ClassDiagram--><rect fill="#FEFECE" filter="url(#f1xfy926cn8le8)" height="48" id="ClassDiagram" style="stroke: #A80036; stroke-width: 1.5;" width="111" x="1053" y="352"/><ellipse cx="1068" cy="368" fill="#ADD1B2" rx="11" ry="11" style="stroke: #A80036; stroke-width: 1.0;"/><path d="M1070.4731,374.1431 Q1069.8921,374.4419 1069.2529,374.5913 Q1068.6138,374.7407 1067.9082,374.7407 Q1065.4014,374.7407 1064.0815,373.0889 Q1062.7617,371.437 1062.7617,368.3159 Q1062.7617,365.1865 1064.0815,363.5347 Q1065.4014,361.8828 1067.9082,361.8828 Q1068.6138,361.8828 1069.2612,362.0322 Q1069.9087,362.1816 1070.4731,362.4805 L1070.4731,365.2031 Q1069.8423,364.6221 1069.2488,364.3523 Q1068.6553,364.0825 1068.0244,364.0825 Q1066.6797,364.0825 1065.9949,365.1492 Q1065.3101,366.2158 1065.3101,368.3159 Q1065.3101,370.4077 1065.9949,371.4744 Q1066.6797,372.541 1068.0244,372.541 Q1068.6553,372.541 1069.2488,372.2712 Q1069.8423,372.0015 1070.4731,371.4204 Z "/><text fill="#000000" font-family="sans-serif" font-size="12" lengthAdjust="spacingAndGlyphs" textLength="79" x="1082" y="372.5352">ClassDiagram</text><line style="stroke: #A80036; stroke-width: 1.5;" x1="1054" x2="1163" y1="384" y2="384"/><line style="stroke: #A80036; stroke-width: 1.5;" x1="1054" x2="1163" y1="392" y2="392"/><!--class ClassDiagramExtension--><rect fill="#FEFECE" filter="url(#f1xfy926cn8le8)" height="138.6855" id="ClassDiagramExtension" style="stroke: #A80036; stroke-width: 1.5;" width="212" x="2654.5" y="516"/><ellipse cx="2690.2" cy="532" fill="#ADD1B2" rx="11" ry="11" style="stroke: #A80036; stroke-width: 1.0;"/><path d="M2692.6731,538.1431 Q2692.0921,538.4419 2691.4529,538.5913 Q2690.8138,538.7407 2690.1082,538.7407 Q2687.6014,538.7407 2686.2815,537.0889 Q2684.9617,535.437 2684.9617,532.3159 Q2684.9617,529.1865 2686.2815,527.5347 Q2687.6014,525.8828 2690.1082,525.8828 Q2690.8138,525.8828 2691.4612,526.0322 Q2692.1087,526.1816 2692.6731,526.4805 L2692.6731,529.2031 Q2692.0423,528.6221 2691.4488,528.3523 Q2690.8553,528.0825 2690.2244,528.0825 Q2688.8797,528.0825 2688.1949,529.1492 Q2687.5101,530.2158 2687.5101,532.3159 Q2687.5101,534.4077 2688.1949,535.4744 Q2688.8797,536.541 2690.2244,536.541 Q2690.8553,536.541 2691.4488,536.2712 Q2692.0423,536.0015 2692.6731,535.4204 Z "/><text fill="#000000" font-family="sans-serif" font-size="12" lengthAdjust="spacingAndGlyphs" textLength="134" x="2708.8" y="536.5352">ClassDiagramExtension</text><line style="stroke: #A80036; stroke-width: 1.5;" x1="2655.5" x2="2865.5" y1="548" y2="548"/><text fill="#000000" font-family="sans-serif" font-size="11" lengthAdjust="spacingAndGlyphs" textLength="115" x="2660.5" y="562.6348">packageName : String</text><text fill="#000000" font-family="sans-serif" font-size="11" lengthAdjust="spacingAndGlyphs" textLength="81" x="2660.5" y="575.5898">outputFile : File</text><text fill="#000000" font-family="sans-serif" font-size="11" lengthAdjust="spacingAndGlyphs" textLength="161" x="2660.5" y="588.5449">ignoredClasses : List&lt;String&gt;</text><text fill="#000000" font-family="sans-serif" font-size="11" lengthAdjust="spacingAndGlyphs" textLength="118" x="2660.5" y="601.5">metaClass : MetaClass</text><line style="stroke: #A80036; stroke-width: 1.5;" x1="2655.5" x2="2865.5" y1="607.8203" y2="607.8203"/><text fill="#000000" font-family="sans-serif" font-size="11" lengthAdjust="spacingAndGlyphs" textLength="147" x="2660.5" y="622.4551">getProperty(String) : Object</text><text fill="#000000" font-family="sans-serif" font-size="11" lengthAdjust="spacingAndGlyphs" textLength="200" x="2660.5" y="635.4102">invokeMethod(String, Object) : Object</text><text fill="#000000" font-family="sans-serif" font-size="11" lengthAdjust="spacingAndGlyphs" textLength="143" x="2660.5" y="648.3652">setProperty(String, Object)</text><!--class Classes--><rect fill="#FEFECE" filter="url(#f1xfy926cn8le8)" height="60.9551" id="Classes" style="stroke: #A80036; stroke-width: 1.5;" width="134" x="554.5" y="142.5"/><ellipse cx="596.05" cy="158.5" fill="#B4A7E5" rx="11" ry="11" style="stroke: #A80036; stroke-width: 1.0;"/><path d="M592.4777,154.7651 L592.4777,152.6069 L599.8571,152.6069 L599.8571,154.7651 L597.3918,154.7651 L597.3918,162.8418 L599.8571,162.8418 L599.8571,165 L592.4777,165 L592.4777,162.8418 L594.9431,162.8418 L594.9431,154.7651 Z "/><text fill="#000000" font-family="sans-serif" font-size="12" font-style="italic" lengthAdjust="spacingAndGlyphs" textLength="43" x="615.95" y="163.0352">Classes</text><line style="stroke: #A80036; stroke-width: 1.5;" x1="555.5" x2="687.5" y1="174.5" y2="174.5"/><line style="stroke: #A80036; stroke-width: 1.5;" x1="555.5" x2="687.5" y1="182.5" y2="182.5"/><text fill="#000000" font-family="sans-serif" font-size="11" lengthAdjust="spacingAndGlyphs" textLength="122" x="560.5" y="197.1348">list() : List&lt;Class&lt;?&gt;&gt;</text><!--class ClsFiltered--><rect fill="#FEFECE" filter="url(#f1xfy926cn8le8)" height="73.9102" id="ClsFiltered" style="stroke: #A80036; stroke-width: 1.5;" width="134" x="554.5" y="339"/><ellipse cx="588.4" cy="355" fill="#ADD1B2" rx="11" ry="11" style="stroke: #A80036; stroke-width: 1.0;"/><path d="M590.8731,361.1431 Q590.2921,361.4419 589.6529,361.5913 Q589.0138,361.7407 588.3082,361.7407 Q585.8014,361.7407 584.4815,360.0889 Q583.1617,358.437 583.1617,355.3159 Q583.1617,352.1865 584.4815,350.5347 Q585.8014,348.8828 588.3082,348.8828 Q589.0138,348.8828 589.6612,349.0322 Q590.3087,349.1816 590.8731,349.4805 L590.8731,352.2031 Q590.2423,351.6221 589.6488,351.3523 Q589.0553,351.0825 588.4244,351.0825 Q587.0797,351.0825 586.3949,352.1492 Q585.7101,353.2158 585.7101,355.3159 Q585.7101,357.4077 586.3949,358.4744 Q587.0797,359.541 588.4244,359.541 Q589.0553,359.541 589.6488,359.2712 Q590.2423,359.0015 590.8731,358.4204 Z "/><text fill="#000000" font-family="sans-serif" font-size="12" lengthAdjust="spacingAndGlyphs" textLength="60" x="606.6" y="359.5352">ClsFiltered</text><line style="stroke: #A80036; stroke-width: 1.5;" x1="555.5" x2="687.5" y1="371" y2="371"/><text fill="#000000" font-family="sans-serif" font-size="11" lengthAdjust="spacingAndGlyphs" textLength="92" x="560.5" y="385.6348">ignored : Classes</text><line style="stroke: #A80036; stroke-width: 1.5;" x1="555.5" x2="687.5" y1="391.9551" y2="391.9551"/><text fill="#000000" font-family="sans-serif" font-size="11" lengthAdjust="spacingAndGlyphs" textLength="122" x="560.5" y="406.5898">list() : List&lt;Class&lt;?&gt;&gt;</text><!--class ClsInPackage--><rect fill="#FEFECE" filter="url(#f1xfy926cn8le8)" height="86.8652" id="ClsInPackage" style="stroke: #A80036; stroke-width: 1.5;" width="143" x="376" y="332.5"/><ellipse cx="407.2" cy="348.5" fill="#ADD1B2" rx="11" ry="11" style="stroke: #A80036; stroke-width: 1.0;"/><path d="M409.6731,354.6431 Q409.0921,354.9419 408.4529,355.0913 Q407.8138,355.2407 407.1082,355.2407 Q404.6014,355.2407 403.2815,353.5889 Q401.9617,351.937 401.9617,348.8159 Q401.9617,345.6865 403.2815,344.0347 Q404.6014,342.3828 407.1082,342.3828 Q407.8138,342.3828 408.4612,342.5322 Q409.1087,342.6816 409.6731,342.9805 L409.6731,345.7031 Q409.0423,345.1221 408.4488,344.8523 Q407.8553,344.5825 407.2244,344.5825 Q405.8797,344.5825 405.1949,345.6492 Q404.5101,346.7158 404.5101,348.8159 Q404.5101,350.9077 405.1949,351.9744 Q405.8797,353.041 407.2244,353.041 Q407.8553,353.041 408.4488,352.7712 Q409.0423,352.5015 409.6731,351.9204 Z "/><text fill="#000000" font-family="sans-serif" font-size="12" lengthAdjust="spacingAndGlyphs" textLength="75" x="424.8" y="353.0352">ClsInPackage</text><line style="stroke: #A80036; stroke-width: 1.5;" x1="377" x2="518" y1="364.5" y2="364.5"/><text fill="#000000" font-family="sans-serif" font-size="11" lengthAdjust="spacingAndGlyphs" textLength="115" x="382" y="379.1348">packageName : String</text><text fill="#000000" font-family="sans-serif" font-size="11" lengthAdjust="spacingAndGlyphs" textLength="131" x="382" y="392.0898">classGraph : ClassGraph</text><line style="stroke: #A80036; stroke-width: 1.5;" x1="377" x2="518" y1="398.4102" y2="398.4102"/><text fill="#000000" font-family="sans-serif" font-size="11" lengthAdjust="spacingAndGlyphs" textLength="122" x="382" y="413.0449">list() : List&lt;Class&lt;?&gt;&gt;</text><!--class ClsWithLog--><rect fill="#FEFECE" filter="url(#f1xfy926cn8le8)" height="73.9102" id="ClsWithLog" style="stroke: #A80036; stroke-width: 1.5;" width="134" x="723.5" y="339"/><ellipse cx="756.95" cy="355" fill="#ADD1B2" rx="11" ry="11" style="stroke: #A80036; stroke-width: 1.0;"/><path d="M759.4231,361.1431 Q758.8421,361.4419 758.2029,361.5913 Q757.5638,361.7407 756.8582,361.7407 Q754.3514,361.7407 753.0315,360.0889 Q751.7117,358.437 751.7117,355.3159 Q751.7117,352.1865 753.0315,350.5347 Q754.3514,348.8828 756.8582,348.8828 Q757.5638,348.8828 758.2112,349.0322 Q758.8587,349.1816 759.4231,349.4805 L759.4231,352.2031 Q758.7923,351.6221 758.1988,351.3523 Q757.6053,351.0825 756.9744,351.0825 Q755.6297,351.0825 754.9449,352.1492 Q754.2601,353.2158 754.2601,355.3159 Q754.2601,357.4077 754.9449,358.4744 Q755.6297,359.541 756.9744,359.541 Q757.6053,359.541 758.1988,359.2712 Q758.7923,359.0015 759.4231,358.4204 Z "/><text fill="#000000" font-family="sans-serif" font-size="12" lengthAdjust="spacingAndGlyphs" textLength="61" x="775.05" y="359.5352">ClsWithLog</text><line style="stroke: #A80036; stroke-width: 1.5;" x1="724.5" x2="856.5" y1="371" y2="371"/><text fill="#000000" font-family="sans-serif" font-size="11" lengthAdjust="spacingAndGlyphs" textLength="82" x="729.5" y="385.6348">logger : Logger</text><line style="stroke: #A80036; stroke-width: 1.5;" x1="724.5" x2="856.5" y1="391.9551" y2="391.9551"/><text fill="#000000" font-family="sans-serif" font-size="11" lengthAdjust="spacingAndGlyphs" textLength="122" x="729.5" y="406.5898">list() : List&lt;Class&lt;?&gt;&gt;</text><!--class ClsWithNames--><rect fill="#FEFECE" filter="url(#f1xfy926cn8le8)" height="86.8652" id="ClsWithNames" style="stroke: #A80036; stroke-width: 1.5;" width="151" x="6" y="332.5"/><ellipse cx="38.1" cy="348.5" fill="#ADD1B2" rx="11" ry="11" style="stroke: #A80036; stroke-width: 1.0;"/><path d="M40.5731,354.6431 Q39.9921,354.9419 39.3529,355.0913 Q38.7138,355.2407 38.0082,355.2407 Q35.5014,355.2407 34.1815,353.5889 Q32.8617,351.937 32.8617,348.8159 Q32.8617,345.6865 34.1815,344.0347 Q35.5014,342.3828 38.0082,342.3828 Q38.7138,342.3828 39.3612,342.5322 Q40.0087,342.6816 40.5731,342.9805 L40.5731,345.7031 Q39.9423,345.1221 39.3488,344.8523 Q38.7553,344.5825 38.1244,344.5825 Q36.7797,344.5825 36.0949,345.6492 Q35.4101,346.7158 35.4101,348.8159 Q35.4101,350.9077 36.0949,351.9744 Q36.7797,353.041 38.1244,353.041 Q38.7553,353.041 39.3488,352.7712 Q39.9423,352.5015 40.5731,351.9204 Z "/><text fill="#000000" font-family="sans-serif" font-size="12" lengthAdjust="spacingAndGlyphs" textLength="81" x="55.9" y="353.0352">ClsWithNames</text><line style="stroke: #A80036; stroke-width: 1.5;" x1="7" x2="156" y1="364.5" y2="364.5"/><text fill="#000000" font-family="sans-serif" font-size="11" lengthAdjust="spacingAndGlyphs" textLength="113" x="12" y="379.1348">names : List&lt;String&gt;</text><text fill="#000000" font-family="sans-serif" font-size="11" lengthAdjust="spacingAndGlyphs" textLength="139" x="12" y="392.0898">classLoader : ClassLoader</text><line style="stroke: #A80036; stroke-width: 1.5;" x1="7" x2="156" y1="398.4102" y2="398.4102"/><text fill="#000000" font-family="sans-serif" font-size="11" lengthAdjust="spacingAndGlyphs" textLength="122" x="12" y="413.0449">list() : List&lt;Class&lt;?&gt;&gt;</text><!--class CompileClasspathUrls--><rect fill="#FEFECE" filter="url(#f1xfy926cn8le8)" height="60.9551" id="CompileClasspathUrls" style="stroke: #A80036; stroke-width: 1.5;" width="242" x="1753.5" y="345.5"/><ellipse cx="1807.75" cy="361.5" fill="#ADD1B2" rx="11" ry="11" style="stroke: #A80036; stroke-width: 1.0;"/><path d="M1810.2231,367.6431 Q1809.6421,367.9419 1809.0029,368.0913 Q1808.3638,368.2407 1807.6582,368.2407 Q1805.1514,368.2407 1803.8315,366.5889 Q1802.5117,364.937 1802.5117,361.8159 Q1802.5117,358.6865 1803.8315,357.0347 Q1805.1514,355.3828 1807.6582,355.3828 Q1808.3638,355.3828 1809.0112,355.5322 Q1809.6587,355.6816 1810.2231,355.9805 L1810.2231,358.7031 Q1809.5923,358.1221 1808.9988,357.8523 Q1808.4053,357.5825 1807.7744,357.5825 Q1806.4297,357.5825 1805.7449,358.6492 Q1805.0601,359.7158 1805.0601,361.8159 Q1805.0601,363.9077 1805.7449,364.9744 Q1806.4297,366.041 1807.7744,366.041 Q1808.4053,366.041 1808.9988,365.7712 Q1809.5923,365.5015 1810.2231,364.9204 Z "/><text fill="#000000" font-family="sans-serif" font-size="12" lengthAdjust="spacingAndGlyphs" textLength="125" x="1828.25" y="366.0352">CompileClasspathUrls</text><line style="stroke: #A80036; stroke-width: 1.5;" x1="1754.5" x2="1994.5" y1="377.5" y2="377.5"/><line style="stroke: #A80036; stroke-width: 1.5;" x1="1754.5" x2="1994.5" y1="385.5" y2="385.5"/><text fill="#000000" font-family="sans-serif" font-size="11" lengthAdjust="spacingAndGlyphs" textLength="230" x="1759.5" y="400.1348">super$2$$getStaticMetaClass() : MetaClass</text><!--class CustomTask--><rect fill="#FEFECE" filter="url(#f1xfy926cn8le8)" height="60.9551" id="CustomTask" style="stroke: #A80036; stroke-width: 1.5;" width="103" x="2709" y="142.5"/><ellipse cx="2724" cy="158.5" fill="#B4A7E5" rx="11" ry="11" style="stroke: #A80036; stroke-width: 1.0;"/><path d="M2720.4277,154.7651 L2720.4277,152.6069 L2727.8071,152.6069 L2727.8071,154.7651 L2725.3418,154.7651 L2725.3418,162.8418 L2727.8071,162.8418 L2727.8071,165 L2720.4277,165 L2720.4277,162.8418 L2722.8931,162.8418 L2722.8931,154.7651 Z "/><text fill="#000000" font-family="sans-serif" font-size="12" font-style="italic" lengthAdjust="spacingAndGlyphs" textLength="71" x="2738" y="163.0352">CustomTask</text><line style="stroke: #A80036; stroke-width: 1.5;" x1="2710" x2="2811" y1="174.5" y2="174.5"/><line style="stroke: #A80036; stroke-width: 1.5;" x1="2710" x2="2811" y1="182.5" y2="182.5"/><text fill="#000000" font-family="sans-serif" font-size="11" lengthAdjust="spacingAndGlyphs" textLength="50" x="2715" y="197.1348">execute()</text><!--class Diagram--><rect fill="#FEFECE" filter="url(#f1xfy926cn8le8)" height="73.9102" id="Diagram" style="stroke: #A80036; stroke-width: 1.5;" width="102" x="893.5" y="136"/><ellipse cx="917.95" cy="152" fill="#B4A7E5" rx="11" ry="11" style="stroke: #A80036; stroke-width: 1.0;"/><path d="M914.3777,148.2651 L914.3777,146.1069 L921.7571,146.1069 L921.7571,148.2651 L919.2918,148.2651 L919.2918,156.3418 L921.7571,156.3418 L921.7571,158.5 L914.3777,158.5 L914.3777,156.3418 L916.8431,156.3418 L916.8431,148.2651 Z "/><text fill="#000000" font-family="sans-serif" font-size="12" font-style="italic" lengthAdjust="spacingAndGlyphs" textLength="49" x="934.05" y="156.5352">Diagram</text><line style="stroke: #A80036; stroke-width: 1.5;" x1="894.5" x2="994.5" y1="168" y2="168"/><line style="stroke: #A80036; stroke-width: 1.5;" x1="894.5" x2="994.5" y1="176" y2="176"/><text fill="#000000" font-family="sans-serif" font-size="11" lengthAdjust="spacingAndGlyphs" textLength="90" x="899.5" y="190.6348">content() : String</text><text fill="#000000" font-family="sans-serif" font-size="11" lengthAdjust="spacingAndGlyphs" textLength="52" x="899.5" y="203.5898">print(File)</text><!--class DiagramWithLog--><rect fill="#FEFECE" filter="url(#f1xfy926cn8le8)" height="73.9102" id="DiagramWithLog" style="stroke: #A80036; stroke-width: 1.5;" width="125" x="893" y="339"/><ellipse cx="908" cy="355" fill="#ADD1B2" rx="11" ry="11" style="stroke: #A80036; stroke-width: 1.0;"/><path d="M910.4731,361.1431 Q909.8921,361.4419 909.2529,361.5913 Q908.6138,361.7407 907.9082,361.7407 Q905.4014,361.7407 904.0815,360.0889 Q902.7617,358.437 902.7617,355.3159 Q902.7617,352.1865 904.0815,350.5347 Q905.4014,348.8828 907.9082,348.8828 Q908.6138,348.8828 909.2612,349.0322 Q909.9087,349.1816 910.4731,349.4805 L910.4731,352.2031 Q909.8423,351.6221 909.2488,351.3523 Q908.6553,351.0825 908.0244,351.0825 Q906.6797,351.0825 905.9949,352.1492 Q905.3101,353.2158 905.3101,355.3159 Q905.3101,357.4077 905.9949,358.4744 Q906.6797,359.541 908.0244,359.541 Q908.6553,359.541 909.2488,359.2712 Q909.8423,359.0015 910.4731,358.4204 Z "/><text fill="#000000" font-family="sans-serif" font-size="12" lengthAdjust="spacingAndGlyphs" textLength="93" x="922" y="359.5352">DiagramWithLog</text><line style="stroke: #A80036; stroke-width: 1.5;" x1="894" x2="1017" y1="371" y2="371"/><text fill="#000000" font-family="sans-serif" font-size="11" lengthAdjust="spacingAndGlyphs" textLength="82" x="899" y="385.6348">logger : Logger</text><line style="stroke: #A80036; stroke-width: 1.5;" x1="894" x2="1017" y1="391.9551" y2="391.9551"/><text fill="#000000" font-family="sans-serif" font-size="11" lengthAdjust="spacingAndGlyphs" textLength="52" x="899" y="406.5898">print(File)</text><!--class FilesUrls--><rect fill="#FEFECE" filter="url(#f1xfy926cn8le8)" height="125.7305" id="FilesUrls" style="stroke: #A80036; stroke-width: 1.5;" width="212" x="2030.5" y="313"/><ellipse cx="2108.75" cy="329" fill="#ADD1B2" rx="11" ry="11" style="stroke: #A80036; stroke-width: 1.0;"/><path d="M2111.2231,335.1431 Q2110.6421,335.4419 2110.0029,335.5913 Q2109.3638,335.7407 2108.6582,335.7407 Q2106.1514,335.7407 2104.8315,334.0889 Q2103.5117,332.437 2103.5117,329.3159 Q2103.5117,326.1865 2104.8315,324.5347 Q2106.1514,322.8828 2108.6582,322.8828 Q2109.3638,322.8828 2110.0112,323.0322 Q2110.6587,323.1816 2111.2231,323.4805 L2111.2231,326.2031 Q2110.5923,325.6221 2109.9988,325.3523 Q2109.4053,325.0825 2108.7744,325.0825 Q2107.4297,325.0825 2106.7449,326.1492 Q2106.0601,327.2158 2106.0601,329.3159 Q2106.0601,331.4077 2106.7449,332.4744 Q2107.4297,333.541 2108.7744,333.541 Q2109.4053,333.541 2109.9988,333.2712 Q2110.5923,333.0015 2111.2231,332.4204 Z "/><text fill="#000000" font-family="sans-serif" font-size="12" lengthAdjust="spacingAndGlyphs" textLength="47" x="2129.25" y="333.5352">FilesUrls</text><line style="stroke: #A80036; stroke-width: 1.5;" x1="2031.5" x2="2241.5" y1="345" y2="345"/><text fill="#000000" font-family="sans-serif" font-size="11" lengthAdjust="spacingAndGlyphs" textLength="83" x="2036.5" y="359.6348">files : Set&lt;File&gt;</text><text fill="#000000" font-family="sans-serif" font-size="11" lengthAdjust="spacingAndGlyphs" textLength="118" x="2036.5" y="372.5898">metaClass : MetaClass</text><line style="stroke: #A80036; stroke-width: 1.5;" x1="2031.5" x2="2241.5" y1="378.9102" y2="378.9102"/><text fill="#000000" font-family="sans-serif" font-size="11" lengthAdjust="spacingAndGlyphs" textLength="147" x="2036.5" y="393.5449">getProperty(String) : Object</text><text fill="#000000" font-family="sans-serif" font-size="11" lengthAdjust="spacingAndGlyphs" textLength="200" x="2036.5" y="406.5">invokeMethod(String, Object) : Object</text><text fill="#000000" font-family="sans-serif" font-size="11" lengthAdjust="spacingAndGlyphs" textLength="143" x="2036.5" y="419.4551">setProperty(String, Object)</text><text fill="#000000" font-family="sans-serif" font-size="11" lengthAdjust="spacingAndGlyphs" textLength="105" x="2036.5" y="432.4102">toList() : List&lt;URL&gt;</text><!--class InvalidPackageException--><rect fill="#FEFECE" filter="url(#f1xfy926cn8le8)" height="48" id="InvalidPackageException" style="stroke: #A80036; stroke-width: 1.5;" width="173" x="2253" y="149"/><ellipse cx="2268" cy="165" fill="#ADD1B2" rx="11" ry="11" style="stroke: #A80036; stroke-width: 1.0;"/><path d="M2270.4731,171.1431 Q2269.8921,171.4419 2269.2529,171.5913 Q2268.6138,171.7407 2267.9082,171.7407 Q2265.4014,171.7407 2264.0815,170.0889 Q2262.7617,168.437 2262.7617,165.3159 Q2262.7617,162.1865 2264.0815,160.5347 Q2265.4014,158.8828 2267.9082,158.8828 Q2268.6138,158.8828 2269.2612,159.0322 Q2269.9087,159.1816 2270.4731,159.4805 L2270.4731,162.2031 Q2269.8423,161.6221 2269.2488,161.3523 Q2268.6553,161.0825 2268.0244,161.0825 Q2266.6797,161.0825 2265.9949,162.1492 Q2265.3101,163.2158 2265.3101,165.3159 Q2265.3101,167.4077 2265.9949,168.4744 Q2266.6797,169.541 2268.0244,169.541 Q2268.6553,169.541 2269.2488,169.2712 Q2269.8423,169.0015 2270.4731,168.4204 Z "/><text fill="#000000" font-family="sans-serif" font-size="12" lengthAdjust="spacingAndGlyphs" textLength="141" x="2282" y="169.5352">InvalidPackageException</text><line style="stroke: #A80036; stroke-width: 1.5;" x1="2254" x2="2425" y1="181" y2="181"/><line style="stroke: #A80036; stroke-width: 1.5;" x1="2254" x2="2425" y1="189" y2="189"/><!--class LoggableUrls--><rect fill="#FEFECE" filter="url(#f1xfy926cn8le8)" height="112.7754" id="LoggableUrls" style="stroke: #A80036; stroke-width: 1.5;" width="242" x="1476.5" y="319.5"/><ellipse cx="1556.25" cy="335.5" fill="#ADD1B2" rx="11" ry="11" style="stroke: #A80036; stroke-width: 1.0;"/><path d="M1558.7231,341.6431 Q1558.1421,341.9419 1557.5029,342.0913 Q1556.8638,342.2407 1556.1582,342.2407 Q1553.6514,342.2407 1552.3315,340.5889 Q1551.0117,338.937 1551.0117,335.8159 Q1551.0117,332.6865 1552.3315,331.0347 Q1553.6514,329.3828 1556.1582,329.3828 Q1556.8638,329.3828 1557.5112,329.5322 Q1558.1587,329.6816 1558.7231,329.9805 L1558.7231,332.7031 Q1558.0923,332.1221 1557.4988,331.8523 Q1556.9053,331.5825 1556.2744,331.5825 Q1554.9297,331.5825 1554.2449,332.6492 Q1553.5601,333.7158 1553.5601,335.8159 Q1553.5601,337.9077 1554.2449,338.9744 Q1554.9297,340.041 1556.2744,340.041 Q1556.9053,340.041 1557.4988,339.7712 Q1558.0923,339.5015 1558.7231,338.9204 Z "/><text fill="#000000" font-family="sans-serif" font-size="12" lengthAdjust="spacingAndGlyphs" textLength="74" x="1576.75" y="340.0352">LoggableUrls</text><line style="stroke: #A80036; stroke-width: 1.5;" x1="1477.5" x2="1717.5" y1="351.5" y2="351.5"/><text fill="#000000" font-family="sans-serif" font-size="11" lengthAdjust="spacingAndGlyphs" textLength="73" x="1482.5" y="366.1348">prefix : String</text><text fill="#000000" font-family="sans-serif" font-size="11" lengthAdjust="spacingAndGlyphs" textLength="82" x="1482.5" y="379.0898">logger : Logger</text><line style="stroke: #A80036; stroke-width: 1.5;" x1="1477.5" x2="1717.5" y1="385.4102" y2="385.4102"/><text fill="#000000" font-family="sans-serif" font-size="11" lengthAdjust="spacingAndGlyphs" textLength="230" x="1482.5" y="400.0449">super$2$$getStaticMetaClass() : MetaClass</text><text fill="#000000" font-family="sans-serif" font-size="11" lengthAdjust="spacingAndGlyphs" textLength="118" x="1482.5" y="413">super$2$toList() : List</text><text fill="#000000" font-family="sans-serif" font-size="11" lengthAdjust="spacingAndGlyphs" textLength="105" x="1482.5" y="425.9551">toList() : List&lt;URL&gt;</text><!--class MainOutputUrls--><rect fill="#FEFECE" filter="url(#f1xfy926cn8le8)" height="60.9551" id="MainOutputUrls" style="stroke: #A80036; stroke-width: 1.5;" width="242" x="1199.5" y="345.5"/><ellipse cx="1272.25" cy="361.5" fill="#ADD1B2" rx="11" ry="11" style="stroke: #A80036; stroke-width: 1.0;"/><path d="M1274.7231,367.6431 Q1274.1421,367.9419 1273.5029,368.0913 Q1272.8638,368.2407 1272.1582,368.2407 Q1269.6514,368.2407 1268.3315,366.5889 Q1267.0117,364.937 1267.0117,361.8159 Q1267.0117,358.6865 1268.3315,357.0347 Q1269.6514,355.3828 1272.1582,355.3828 Q1272.8638,355.3828 1273.5112,355.5322 Q1274.1587,355.6816 1274.7231,355.9805 L1274.7231,358.7031 Q1274.0923,358.1221 1273.4988,357.8523 Q1272.9053,357.5825 1272.2744,357.5825 Q1270.9297,357.5825 1270.2449,358.6492 Q1269.5601,359.7158 1269.5601,361.8159 Q1269.5601,363.9077 1270.2449,364.9744 Q1270.9297,366.041 1272.2744,366.041 Q1272.9053,366.041 1273.4988,365.7712 Q1274.0923,365.5015 1274.7231,364.9204 Z "/><text fill="#000000" font-family="sans-serif" font-size="12" lengthAdjust="spacingAndGlyphs" textLength="88" x="1292.75" y="366.0352">MainOutputUrls</text><line style="stroke: #A80036; stroke-width: 1.5;" x1="1200.5" x2="1440.5" y1="377.5" y2="377.5"/><line style="stroke: #A80036; stroke-width: 1.5;" x1="1200.5" x2="1440.5" y1="385.5" y2="385.5"/><text fill="#000000" font-family="sans-serif" font-size="11" lengthAdjust="spacingAndGlyphs" textLength="230" x="1205.5" y="400.1348">super$2$$getStaticMetaClass() : MetaClass</text><!--class MergedUrls--><rect fill="#FEFECE" filter="url(#f1xfy926cn8le8)" height="125.7305" id="MergedUrls" style="stroke: #A80036; stroke-width: 1.5;" width="212" x="1896.5" y="110"/><ellipse cx="1965.25" cy="126" fill="#ADD1B2" rx="11" ry="11" style="stroke: #A80036; stroke-width: 1.0;"/><path d="M1967.7231,132.1431 Q1967.1421,132.4419 1966.5029,132.5913 Q1965.8638,132.7407 1965.1582,132.7407 Q1962.6514,132.7407 1961.3315,131.0889 Q1960.0117,129.437 1960.0117,126.3159 Q1960.0117,123.1865 1961.3315,121.5347 Q1962.6514,119.8828 1965.1582,119.8828 Q1965.8638,119.8828 1966.5112,120.0322 Q1967.1587,120.1816 1967.7231,120.4805 L1967.7231,123.2031 Q1967.0923,122.6221 1966.4988,122.3523 Q1965.9053,122.0825 1965.2744,122.0825 Q1963.9297,122.0825 1963.2449,123.1492 Q1962.5601,124.2158 1962.5601,126.3159 Q1962.5601,128.4077 1963.2449,129.4744 Q1963.9297,130.541 1965.2744,130.541 Q1965.9053,130.541 1966.4988,130.2712 Q1967.0923,130.0015 1967.7231,129.4204 Z "/><text fill="#000000" font-family="sans-serif" font-size="12" lengthAdjust="spacingAndGlyphs" textLength="66" x="1985.75" y="130.5352">MergedUrls</text><line style="stroke: #A80036; stroke-width: 1.5;" x1="1897.5" x2="2107.5" y1="142" y2="142"/><text fill="#000000" font-family="sans-serif" font-size="11" lengthAdjust="spacingAndGlyphs" textLength="89" x="1902.5" y="156.6348">urls : List&lt;Urls&gt;</text><text fill="#000000" font-family="sans-serif" font-size="11" lengthAdjust="spacingAndGlyphs" textLength="118" x="1902.5" y="169.5898">metaClass : MetaClass</text><line style="stroke: #A80036; stroke-width: 1.5;" x1="1897.5" x2="2107.5" y1="175.9102" y2="175.9102"/><text fill="#000000" font-family="sans-serif" font-size="11" lengthAdjust="spacingAndGlyphs" textLength="147" x="1902.5" y="190.5449">getProperty(String) : Object</text><text fill="#000000" font-family="sans-serif" font-size="11" lengthAdjust="spacingAndGlyphs" textLength="200" x="1902.5" y="203.5">invokeMethod(String, Object) : Object</text><text fill="#000000" font-family="sans-serif" font-size="11" lengthAdjust="spacingAndGlyphs" textLength="143" x="1902.5" y="216.4551">setProperty(String, Object)</text><text fill="#000000" font-family="sans-serif" font-size="11" lengthAdjust="spacingAndGlyphs" textLength="105" x="1902.5" y="229.4102">toList() : List&lt;URL&gt;</text><!--class PlantUmlPlugin--><rect fill="#FEFECE" filter="url(#f1xfy926cn8le8)" height="125.7305" id="PlantUmlPlugin" style="stroke: #A80036; stroke-width: 1.5;" width="212" x="2461.5" y="110"/><ellipse cx="2521.25" cy="126" fill="#ADD1B2" rx="11" ry="11" style="stroke: #A80036; stroke-width: 1.0;"/><path d="M2523.7231,132.1431 Q2523.1421,132.4419 2522.5029,132.5913 Q2521.8638,132.7407 2521.1582,132.7407 Q2518.6514,132.7407 2517.3315,131.0889 Q2516.0117,129.437 2516.0117,126.3159 Q2516.0117,123.1865 2517.3315,121.5347 Q2518.6514,119.8828 2521.1582,119.8828 Q2521.8638,119.8828 2522.5112,120.0322 Q2523.1587,120.1816 2523.7231,120.4805 L2523.7231,123.2031 Q2523.0923,122.6221 2522.4988,122.3523 Q2521.9053,122.0825 2521.2744,122.0825 Q2519.9297,122.0825 2519.2449,123.1492 Q2518.5601,124.2158 2518.5601,126.3159 Q2518.5601,128.4077 2519.2449,129.4744 Q2519.9297,130.541 2521.2744,130.541 Q2521.9053,130.541 2522.4988,130.2712 Q2523.0923,130.0015 2523.7231,129.4204 Z "/><text fill="#000000" font-family="sans-serif" font-size="12" lengthAdjust="spacingAndGlyphs" textLength="84" x="2541.75" y="130.5352">PlantUmlPlugin</text><line style="stroke: #A80036; stroke-width: 1.5;" x1="2462.5" x2="2672.5" y1="142" y2="142"/><text fill="#000000" font-family="sans-serif" font-size="11" lengthAdjust="spacingAndGlyphs" textLength="118" x="2467.5" y="156.6348">metaClass : MetaClass</text><line style="stroke: #A80036; stroke-width: 1.5;" x1="2462.5" x2="2672.5" y1="162.9551" y2="162.9551"/><text fill="#000000" font-family="sans-serif" font-size="11" lengthAdjust="spacingAndGlyphs" textLength="74" x="2467.5" y="177.5898">apply(Project)</text><text fill="#000000" font-family="sans-serif" font-size="11" lengthAdjust="spacingAndGlyphs" textLength="72" x="2467.5" y="190.5449">apply(Object)</text><text fill="#000000" font-family="sans-serif" font-size="11" lengthAdjust="spacingAndGlyphs" textLength="147" x="2467.5" y="203.5">getProperty(String) : Object</text><text fill="#000000" font-family="sans-serif" font-size="11" lengthAdjust="spacingAndGlyphs" textLength="200" x="2467.5" y="216.4551">invokeMethod(String, Object) : Object</text><text fill="#000000" font-family="sans-serif" font-size="11" lengthAdjust="spacingAndGlyphs" textLength="143" x="2467.5" y="229.4102">setProperty(String, Object)</text><!--class Simple--><rect fill="#FEFECE" filter="url(#f1xfy926cn8le8)" height="73.9102" id="Simple" style="stroke: #A80036; stroke-width: 1.5;" width="149" x="192" y="339"/><ellipse cx="243.25" cy="355" fill="#ADD1B2" rx="11" ry="11" style="stroke: #A80036; stroke-width: 1.0;"/><path d="M245.7231,361.1431 Q245.1421,361.4419 244.5029,361.5913 Q243.8638,361.7407 243.1582,361.7407 Q240.6514,361.7407 239.3315,360.0889 Q238.0117,358.437 238.0117,355.3159 Q238.0117,352.1865 239.3315,350.5347 Q240.6514,348.8828 243.1582,348.8828 Q243.8638,348.8828 244.5112,349.0322 Q245.1587,349.1816 245.7231,349.4805 L245.7231,352.2031 Q245.0923,351.6221 244.4988,351.3523 Q243.9053,351.0825 243.2744,351.0825 Q241.9297,351.0825 241.2449,352.1492 Q240.5601,353.2158 240.5601,355.3159 Q240.5601,357.4077 241.2449,358.4744 Q241.9297,359.541 243.2744,359.541 Q243.9053,359.541 244.4988,359.2712 Q245.0923,359.0015 245.7231,358.4204 Z "/><text fill="#000000" font-family="sans-serif" font-size="12" lengthAdjust="spacingAndGlyphs" textLength="38" x="263.75" y="359.5352">Simple</text><line style="stroke: #A80036; stroke-width: 1.5;" x1="193" x2="340" y1="371" y2="371"/><text fill="#000000" font-family="sans-serif" font-size="11" lengthAdjust="spacingAndGlyphs" textLength="137" x="198" y="385.6348">classes : List&lt;Class&lt;?&gt;&gt;</text><line style="stroke: #A80036; stroke-width: 1.5;" x1="193" x2="340" y1="391.9551" y2="391.9551"/><text fill="#000000" font-family="sans-serif" font-size="11" lengthAdjust="spacingAndGlyphs" textLength="122" x="198" y="406.5898">list() : List&lt;Class&lt;?&gt;&gt;</text><!--class Urls--><rect fill="#FEFECE" filter="url(#f1xfy926cn8le8)" height="60.9551" id="Urls" style="stroke: #A80036; stroke-width: 1.5;" width="117" x="1712" y="142.5"/><ellipse cx="1755.35" cy="158.5" fill="#B4A7E5" rx="11" ry="11" style="stroke: #A80036; stroke-width: 1.0;"/><path d="M1751.7777,154.7651 L1751.7777,152.6069 L1759.1571,152.6069 L1759.1571,154.7651 L1756.6918,154.7651 L1756.6918,162.8418 L1759.1571,162.8418 L1759.1571,165 L1751.7777,165 L1751.7777,162.8418 L1754.2431,162.8418 L1754.2431,154.7651 Z "/><text fill="#000000" font-family="sans-serif" font-size="12" font-style="italic" lengthAdjust="spacingAndGlyphs" textLength="22" x="1775.65" y="163.0352">Urls</text><line style="stroke: #A80036; stroke-width: 1.5;" x1="1713" x2="1828" y1="174.5" y2="174.5"/><line style="stroke: #A80036; stroke-width: 1.5;" x1="1713" x2="1828" y1="182.5" y2="182.5"/><text fill="#000000" font-family="sans-serif" font-size="11" lengthAdjust="spacingAndGlyphs" textLength="105" x="1718" y="197.1348">toList() : List&lt;URL&gt;</text><!--class Wrap--><rect fill="#FEFECE" filter="url(#f1xfy926cn8le8)" height="73.9102" id="Wrap" style="stroke: #A80036; stroke-width: 1.5;" width="134" x="1030.5" y="136"/><ellipse cx="1078.25" cy="152" fill="#A9DCDF" rx="11" ry="11" style="stroke: #A80036; stroke-width: 1.0;"/><path d="M1078.3633,147.5981 L1077.2095,152.6699 L1079.5254,152.6699 Z M1076.8691,145.3569 L1079.8657,145.3569 L1083.2109,157.75 L1080.7622,157.75 L1079.9985,154.687 L1076.7197,154.687 L1075.9727,157.75 L1073.5239,157.75 Z "/><text fill="#000000" font-family="sans-serif" font-size="12" font-style="italic" lengthAdjust="spacingAndGlyphs" textLength="30" x="1098.75" y="156.5352">Wrap</text><line style="stroke: #A80036; stroke-width: 1.5;" x1="1031.5" x2="1163.5" y1="168" y2="168"/><text fill="#000000" font-family="sans-serif" font-size="11" lengthAdjust="spacingAndGlyphs" textLength="82" x="1036.5" y="182.6348">origin : Classes</text><line style="stroke: #A80036; stroke-width: 1.5;" x1="1031.5" x2="1163.5" y1="188.9551" y2="188.9551"/><text fill="#000000" font-family="sans-serif" font-size="11" lengthAdjust="spacingAndGlyphs" textLength="122" x="1036.5" y="203.5898">list() : List&lt;Class&lt;?&gt;&gt;</text><!--class _toList_closure1--><rect fill="#FEFECE" filter="url(#f1xfy926cn8le8)" height="73.9102" id="_toList_closure1" style="stroke: #A80036; stroke-width: 1.5;" width="123" x="2278" y="339"/><ellipse cx="2293" cy="355" fill="#ADD1B2" rx="11" ry="11" style="stroke: #A80036; stroke-width: 1.0;"/><path d="M2295.4731,361.1431 Q2294.8921,361.4419 2294.2529,361.5913 Q2293.6138,361.7407 2292.9082,361.7407 Q2290.4014,361.7407 2289.0815,360.0889 Q2287.7617,358.437 2287.7617,355.3159 Q2287.7617,352.1865 2289.0815,350.5347 Q2290.4014,348.8828 2292.9082,348.8828 Q2293.6138,348.8828 2294.2612,349.0322 Q2294.9087,349.1816 2295.4731,349.4805 L2295.4731,352.2031 Q2294.8423,351.6221 2294.2488,351.3523 Q2293.6553,351.0825 2293.0244,351.0825 Q2291.6797,351.0825 2290.9949,352.1492 Q2290.3101,353.2158 2290.3101,355.3159 Q2290.3101,357.4077 2290.9949,358.4744 Q2291.6797,359.541 2293.0244,359.541 Q2293.6553,359.541 2294.2488,359.2712 Q2294.8423,359.0015 2295.4731,358.4204 Z "/><text fill="#000000" font-family="sans-serif" font-size="12" lengthAdjust="spacingAndGlyphs" textLength="91" x="2307" y="359.5352">_toList_closure1</text><line style="stroke: #A80036; stroke-width: 1.5;" x1="2279" x2="2400" y1="371" y2="371"/><line style="stroke: #A80036; stroke-width: 1.5;" x1="2279" x2="2400" y1="379" y2="379"/><text fill="#000000" font-family="sans-serif" font-size="11" lengthAdjust="spacingAndGlyphs" textLength="88" x="2284" y="393.6348">call(File) : Object</text><text fill="#000000" font-family="sans-serif" font-size="11" lengthAdjust="spacingAndGlyphs" textLength="104" x="2284" y="406.5898">doCall(File) : Object</text><!--link BuildClassDiagramTask to ClassDiagramExtension--><path d="M2760.5,432.61 C2760.5,456.58 2760.5,484.96 2760.5,510.66 " fill="none" id="BuildClassDiagramTask-ClassDiagramExtension" style="stroke: #A80036; stroke-width: 1.0;"/><polygon fill="#A80036" points="2760.5,515.76,2764.5,506.76,2760.5,510.76,2756.5,506.76,2760.5,515.76" style="stroke: #A80036; stroke-width: 1.0;"/><text fill="#000000" font-family="sans-serif" font-size="13" lengthAdjust="spacingAndGlyphs" textLength="62" x="2761.5" y="482.5684">extension</text><!--link Classes to ClsFiltered--><path d="M621.5,208.87 C621.5,243.51 621.5,296.63 621.5,333.44 " fill="none" id="Classes-ClsFiltered" style="stroke: #A80036; stroke-width: 1.0;"/><polygon fill="#A80036" points="621.5,338.75,625.5,329.75,621.5,333.75,617.5,329.75,621.5,338.75" style="stroke: #A80036; stroke-width: 1.0;"/><polygon fill="#A80036" points="621.5,203.66,617.5,212.66,621.5,208.66,625.5,212.66,621.5,203.66" style="stroke: #A80036; stroke-width: 1.0;"/><text fill="#000000" font-family="sans-serif" font-size="13" lengthAdjust="spacingAndGlyphs" textLength="55" x="622.5" y="279.5684">/ignored</text><!--link Classes to ClsInPackage--><path d="M582.39,219.18 C553.11,253.01 513.31,298.98 484.54,332.22 " fill="none" id="Classes-ClsInPackage" style="stroke: #A80036; stroke-width: 1.0;"/><polygon fill="none" points="577.44,214.2,595.83,203.66,588.03,223.36,577.44,214.2" style="stroke: #A80036; stroke-width: 1.0;"/><!--link Classes to ClsWithLog--><path d="M659.47,219.16 C689.83,255.27 731.83,305.22 760.02,338.75 " fill="none" id="Classes-ClsWithLog" style="stroke: #A80036; stroke-width: 1.0;"/><polygon fill="none" points="653.95,223.47,646.44,203.66,664.67,214.46,653.95,223.47" style="stroke: #A80036; stroke-width: 1.0;"/><!--link Classes to ClsWithNames--><path d="M534.5,193.19 C442.36,215.31 293.98,256.05 174.5,313 C162.94,318.51 151.16,325.3 140.04,332.34 " fill="none" id="Classes-ClsWithNames" style="stroke: #A80036; stroke-width: 1.0;"/><polygon fill="none" points="533.05,186.34,554.13,188.56,536.27,199.97,533.05,186.34" style="stroke: #A80036; stroke-width: 1.0;"/><!--link Classes to Simple--><path d="M543.3,212.57 C490.34,239.35 419.24,276.62 358.5,313 C345.12,321.02 330.99,330.17 317.93,338.93 " fill="none" id="Classes-Simple" style="stroke: #A80036; stroke-width: 1.0;"/><polygon fill="none" points="540.21,206.28,561.22,203.55,546.5,218.79,540.21,206.28" style="stroke: #A80036; stroke-width: 1.0;"/><!--link Classes to Wrap--><path d="M679.19,139.96 C721.28,117.84 780.52,90.7 836.5,79 C914.25,62.75 940.5,76.46 1012.5,110 C1025.4,116.01 1038.28,124.15 1049.97,132.59 " fill="none" id="Classes-Wrap" style="stroke: #A80036; stroke-width: 1.0;"/><polygon fill="#A80036" points="1054.22,135.71,1049.3318,127.1599,1050.1893,132.7513,1044.5979,133.6089,1054.22,135.71" style="stroke: #A80036; stroke-width: 1.0;"/><polygon fill="#A80036" points="674.66,142.36,684.4858,141.6871,679.0796,140.0219,680.7448,134.6157,674.66,142.36" style="stroke: #A80036; stroke-width: 1.0;"/><text fill="#000000" font-family="sans-serif" font-size="13" lengthAdjust="spacingAndGlyphs" textLength="44" x="837.5" y="76.5684">/origin</text><!--link CustomTask to BuildClassDiagramTask--><path d="M2760.5,223.67 C2760.5,252.69 2760.5,289.38 2760.5,319.37 " fill="none" id="CustomTask-BuildClassDiagramTask" style="stroke: #A80036; stroke-width: 1.0;"/><polygon fill="none" points="2753.5,223.66,2760.5,203.66,2767.5,223.66,2753.5,223.66" style="stroke: #A80036; stroke-width: 1.0;"/><!--link Diagram to ClassDiagram--><path d="M986.95,226.03 C1020.1,266.65 1064.58,321.17 1089.51,351.73 " fill="none" id="Diagram-ClassDiagram" style="stroke: #A80036; stroke-width: 1.0;"/><polygon fill="none" points="981.42,230.32,974.2,210.4,992.27,221.47,981.42,230.32" style="stroke: #A80036; stroke-width: 1.0;"/><!--link Diagram to DiagramWithLog--><path d="M947.6,230.7 C949.5,265.41 951.88,308.78 953.52,338.87 " fill="none" id="Diagram-DiagramWithLog" style="stroke: #A80036; stroke-width: 1.0;"/><polygon fill="none" points="940.6,230.75,946.49,210.4,954.57,229.99,940.6,230.75" style="stroke: #A80036; stroke-width: 1.0;"/><!--link Urls to CompileClasspathUrls--><path d="M1795.04,221.43 C1814.88,259.78 1842.21,312.59 1859.09,345.22 " fill="none" id="Urls-CompileClasspathUrls" style="stroke: #A80036; stroke-width: 1.0;"/><polygon fill="none" points="1788.82,224.64,1785.85,203.66,1801.25,218.2,1788.82,224.64" style="stroke: #A80036; stroke-width: 1.0;"/><!--link Urls to FilesUrls--><path d="M1838.87,213.62 C1851.99,221.11 1865.64,228.85 1878.5,236 C1928.19,263.64 1983.66,293.64 2030.39,318.66 " fill="none" id="Urls-FilesUrls" style="stroke: #A80036; stroke-width: 1.0;"/><polygon fill="none" points="1835.3,219.64,1821.43,203.61,1842.26,207.5,1835.3,219.64" style="stroke: #A80036; stroke-width: 1.0;"/><!--link Urls to LoggableUrls--><path d="M1731.71,219.07 C1706.18,248.73 1672.58,287.77 1645.38,319.37 " fill="none" id="Urls-LoggableUrls" style="stroke: #A80036; stroke-width: 1.0;"/><polygon fill="none" points="1726.62,214.25,1744.97,203.66,1737.23,223.38,1726.62,214.25" style="stroke: #A80036; stroke-width: 1.0;"/><!--link Urls to MainOutputUrls--><path d="M1693.18,208.37 C1630.02,236.46 1538.46,277.23 1458.5,313 C1434.88,323.57 1409.01,335.18 1386.11,345.47 " fill="none" id="Urls-MainOutputUrls" style="stroke: #A80036; stroke-width: 1.0;"/><polygon fill="none" points="1690.7,201.81,1711.82,200.08,1696.39,214.6,1690.7,201.81" style="stroke: #A80036; stroke-width: 1.0;"/><!--link Urls to MergedUrls--><path d="M1834.37,173 C1851.85,173 1871.33,173 1890.65,173 " fill="none" id="Urls-MergedUrls" style="stroke: #A80036; stroke-width: 1.0;"/><polygon fill="#A80036" points="1896.09,173,1887.09,169,1891.09,173,1887.09,177,1896.09,173" style="stroke: #A80036; stroke-width: 1.0;"/><polygon fill="#A80036" points="1829.04,173,1838.04,177,1834.04,173,1838.04,169,1829.04,173" style="stroke: #A80036; stroke-width: 1.0;"/><text fill="#000000" font-family="sans-serif" font-size="13" lengthAdjust="spacingAndGlyphs" textLength="31" x="1847.25" y="166.5684">/urls</text><text fill="#000000" font-family="sans-serif" font-size="13" lengthAdjust="spacingAndGlyphs" textLength="6" x="1836.9248" y="169.6302">*</text><!--link Wrap to ClassDiagram--><path d="M1100.59,230.4 C1102.78,270.49 1105.61,322.26 1107.23,351.73 " fill="none" id="Wrap-ClassDiagram" style="stroke: #A80036; stroke-width: 1.0;"/><polygon fill="none" points="1093.6,230.75,1099.49,210.4,1107.57,229.99,1093.6,230.75" style="stroke: #A80036; stroke-width: 1.0;"/><!--link Wrap to ClsFiltered--><path d="M1037.77,221.83 C1029.57,227.11 1021.03,232.01 1012.5,236 C948.8,265.83 769.11,282.99 705.5,313 C691.07,319.81 676.64,329.26 663.91,338.73 " fill="none" id="Wrap-ClsFiltered" style="stroke: #A80036; stroke-width: 1.0;"/><polygon fill="none" points="1034.1,215.86,1054.53,210.25,1042.05,227.38,1034.1,215.86" style="stroke: #A80036; stroke-width: 1.0;"/><!--link Wrap to ClsWithLog--><path d="M1033.52,221.89 C1026.5,226.77 1019.4,231.56 1012.5,236 C953.74,273.76 934.26,275.24 875.5,313 C863.05,321 849.97,330.14 837.91,338.91 " fill="none" id="Wrap-ClsWithLog" style="stroke: #A80036; stroke-width: 1.0;"/><polygon fill="none" points="1029.74,215.99,1050.09,210.09,1037.86,227.4,1029.74,215.99" style="stroke: #A80036; stroke-width: 1.0;"/><!--link Wrap to CompileClasspathUrls--><path d="M1184.91,187.2 C1309.23,207.29 1543.37,249.96 1735.5,313 C1762.36,321.81 1791.05,334.09 1815.35,345.4 " fill="none" id="Wrap-CompileClasspathUrls" style="stroke: #A80036; stroke-width: 1.0;"/><polygon fill="none" points="1183.48,194.06,1164.83,184,1185.68,180.24,1183.48,194.06" style="stroke: #A80036; stroke-width: 1.0;"/><!--link Wrap to DiagramWithLog--><path d="M1060.2,226.8 C1035.25,262.11 1003.08,307.65 981.02,338.87 " fill="none" id="Wrap-DiagramWithLog" style="stroke: #A80036; stroke-width: 1.0;"/><polygon fill="none" points="1054.53,222.7,1071.78,210.4,1065.96,230.77,1054.53,222.7" style="stroke: #A80036; stroke-width: 1.0;"/><!--link Wrap to LoggableUrls--><path d="M1183.6,205.72 C1257.06,233.11 1365.27,274.29 1458.5,313 C1464.36,315.43 1470.34,317.95 1476.37,320.52 " fill="none" id="Wrap-LoggableUrls" style="stroke: #A80036; stroke-width: 1.0;"/><polygon fill="none" points="1181.08,212.25,1164.78,198.71,1185.97,199.13,1181.08,212.25" style="stroke: #A80036; stroke-width: 1.0;"/><!--link Wrap to MainOutputUrls--><path d="M1152.5,223.58 C1194.88,261.77 1252.06,313.31 1287.59,345.34 " fill="none" id="Wrap-MainOutputUrls" style="stroke: #A80036; stroke-width: 1.0;"/><polygon fill="none" points="1147.79,228.76,1137.63,210.17,1157.17,218.36,1147.79,228.76" style="stroke: #A80036; stroke-width: 1.0;"/><!--link InvalidPackageException to PlantUmlPlugin--><!--link InvalidPackageException to _toList_closure1--><!--
@startuml

class "BuildClassDiagramTask" {
  extension : ClassDiagramExtension
  metaClass : MetaClass
  execute()
  getProperty(String) : Object
  invokeMethod(String, Object) : Object
}

class "ClassDiagram"

class "ClassDiagramExtension" {
  packageName : String
  outputFile : File
  ignoredClasses : List<String>
  metaClass : MetaClass
  getProperty(String) : Object
  invokeMethod(String, Object) : Object
  setProperty(String, Object)
}

interface "Classes" {
  list() : List<Class<?>>
}

class "ClsFiltered" {
  ignored : Classes
  list() : List<Class<?>>
}

class "ClsInPackage" {
  packageName : String
  classGraph : ClassGraph
  list() : List<Class<?>>
}

class "ClsWithLog" {
  logger : Logger
  list() : List<Class<?>>
}

class "ClsWithNames" {
  names : List<String>
  classLoader : ClassLoader
  list() : List<Class<?>>
}

class "CompileClasspathUrls" {
  super$2$$getStaticMetaClass() : MetaClass
}

interface "CustomTask" {
  execute()
}

interface "Diagram" {
  content() : String
  print(File)
}

class "DiagramWithLog" {
  logger : Logger
  print(File)
}

class "FilesUrls" {
  files : Set<File>
  metaClass : MetaClass
  getProperty(String) : Object
  invokeMethod(String, Object) : Object
  setProperty(String, Object)
  toList() : List<URL>
}

class "InvalidPackageException"

class "LoggableUrls" {
  prefix : String
  logger : Logger
  super$2$$getStaticMetaClass() : MetaClass
  super$2$toList() : List
  toList() : List<URL>
}

class "MainOutputUrls" {
  super$2$$getStaticMetaClass() : MetaClass
}

class "MergedUrls" {
  urls : List<Urls>
  metaClass : MetaClass
  getProperty(String) : Object
  invokeMethod(String, Object) : Object
  setProperty(String, Object)
  toList() : List<URL>
}

class "PlantUmlPlugin" {
  metaClass : MetaClass
  apply(Project)
  apply(Object)
  getProperty(String) : Object
  invokeMethod(String, Object) : Object
  setProperty(String, Object)
}

class "Simple" {
  classes : List<Class<?>>
  list() : List<Class<?>>
}

interface "Urls" {
  toList() : List<URL>
}

abstract class "Wrap" {
  origin : Classes
  list() : List<Class<?>>
}

class "_toList_closure1" {
  call(File) : Object
  doCall(File) : Object
}

"BuildClassDiagramTask" - -> "ClassDiagramExtension" : extension
"Classes" <-> "ClsFiltered" : /ignored
"Classes" <|- - "ClsInPackage"
"Classes" <|- - "ClsWithLog"
"Classes" <|- - "ClsWithNames"
"Classes" <|- - "Simple"
"Classes" <-> "Wrap" : /origin
"CustomTask" <|- - "BuildClassDiagramTask"
"Diagram" <|- - "ClassDiagram"
"Diagram" <|- - "DiagramWithLog"
"Urls" <|- - "CompileClasspathUrls"
"Urls" <|- - "FilesUrls"
"Urls" <|- - "LoggableUrls"
"Urls" <|- - "MainOutputUrls"
"Urls" "*" <-> "MergedUrls" : /urls
"Wrap" <|- - "ClassDiagram"
"Wrap" <|- - "ClsFiltered"
"Wrap" <|- - "ClsWithLog"
"Wrap" <|- - "CompileClasspathUrls"
"Wrap" <|- - "DiagramWithLog"
"Wrap" <|- - "LoggableUrls"
"Wrap" <|- - "MainOutputUrls"

@enduml

PlantUML version 1.2018.12(Sun Oct 21 12:15:15 CEST 2018)
(GPL source distribution)
Java Runtime: OpenJDK Runtime Environment
JVM: Eclipse OpenJ9 VM
Java Version: 1.8.0_252-b09
Operating System: Mac OS X
OS Version: 10.15.4
Default Encoding: UTF-8
Language: fr
Country: FR
--></g></svg>